<svg width="14" height="16" viewBox="0 0 14 16" fill="none" xmlns="http://www.w3.org/2000/svg">
<path d="M6.71091 0.339212C6.70011 0.257442 6.66491 0.181072 6.61021 0.121182C6.55561 0.0613016 6.48441 0.0210213 6.40711 0.00620134C6.32741 -0.00925866 6.24551 0.0043914 6.17491 0.0448714C6.10441 0.0853514 6.04961 0.150202 6.01961 0.228592L4.58123 3.84343C4.55517 3.90924 4.54665 3.98145 4.55657 4.05241C4.56648 4.12336 4.59446 4.19043 4.63754 4.24649C4.71726 4.35089 4.85779 4.42408 5.01321 4.38129L6.91551 3.85769L7.16571 5.57689C7.17641 5.65866 7.21161 5.73504 7.26631 5.79492C7.32091 5.8548 7.39211 5.89508 7.46951 5.9099C7.54911 5.92536 7.63101 5.91171 7.70161 5.87123C7.77211 5.83075 7.82701 5.7659 7.85701 5.68752L9.29501 2.07275C9.32111 2.00694 9.32961 1.93473 9.31971 1.86377C9.30981 1.79282 9.28181 1.72575 9.23871 1.66969C9.19501 1.61135 9.13611 1.56751 9.06931 1.54355C9.00261 1.5196 8.93091 1.51659 8.86301 1.53489L6.96071 2.0585L6.71091 0.339212Z" fill="white"/>
<path d="M12.8347 6.99662C11.8563 4.72065 9.6131 3.13232 7 3.13232C4.38693 3.13232 2.14375 4.72065 1.16534 6.99662C0.51307 7.05292 0 7.60382 0 8.27932V10.8528C0 11.5283 0.51307 12.0792 1.16534 12.1355C2.14375 14.4115 4.38693 15.9998 7 15.9998C9.6131 15.9998 11.8563 14.4115 12.8347 12.1355C13.4869 12.0792 14 11.5283 14 10.8528V8.27932C14 7.60382 13.4869 7.05292 12.8347 6.99662ZM11.4545 8.92272V9.56612C11.4545 11.6972 9.7443 13.4263 7.6364 13.4263H6.3636C4.25568 13.4263 2.54545 11.6972 2.54545 9.56612V8.92272C2.54545 7.85712 3.40057 6.99262 4.45455 6.99262H9.5455C10.5994 6.99262 11.4545 7.85712 11.4545 8.92272Z" fill="white"/>
<path d="M7.34149 8.28909C7.34939 8.23499 7.33789 8.18009 7.30869 8.13229C7.27949 8.08449 7.23399 8.04629 7.17899 8.02319C7.12229 7.99939 7.05829 7.99369 6.99749 8.00709C6.93679 8.02059 6.88299 8.05229 6.84529 8.09709L5.06149 10.151C5.02909 10.1884 5.00859 10.233 5.00219 10.28C4.99574 10.327 5.00359 10.3747 5.02489 10.418C5.06419 10.4987 5.15519 10.57 5.27999 10.57H6.80729L6.65869 11.7109C6.65079 11.765 6.66229 11.8199 6.69149 11.8677C6.72069 11.9155 6.76619 11.9537 6.82129 11.9768C6.87789 12.0006 6.94189 12.0063 7.00269 11.9929C7.06339 11.9794 7.11719 11.9477 7.15499 11.9029L8.93849 9.84899C8.97089 9.81159 8.99139 9.76699 8.99779 9.71999C9.00429 9.67299 8.99639 9.62529 8.97509 9.58199C8.95369 9.53709 8.91819 9.49869 8.87289 9.47169C8.82749 9.44469 8.77439 9.43019 8.71999 9.42999H7.19269L7.34149 8.28909Z" fill="white"/>
</svg>
