<svg width="24" height="24" viewBox="0 0 24 24" fill="none" xmlns="http://www.w3.org/2000/svg">
<rect width="24" height="24" rx="2" fill="#E95420"/>
<path d="M11.7109 4.33921C11.7001 4.25744 11.6649 4.18107 11.6102 4.12118C11.5556 4.0613 11.4844 4.02102 11.4071 4.0062C11.3274 3.99074 11.2455 4.00439 11.1749 4.04487C11.1044 4.08535 11.0496 4.1502 11.0196 4.22859L9.58122 7.84343C9.55516 7.90924 9.54664 7.98145 9.55656 8.05241C9.56647 8.12336 9.59445 8.19043 9.63753 8.24649C9.71725 8.35089 9.85778 8.42408 10.0132 8.38129L11.9155 7.85769L12.1657 9.57689C12.1764 9.65866 12.2116 9.73504 12.2663 9.79492C12.3209 9.8548 12.3921 9.89508 12.4695 9.9099C12.5491 9.92536 12.631 9.91171 12.7016 9.87123C12.7721 9.83075 12.827 9.7659 12.857 9.68752L14.295 6.07275C14.3211 6.00694 14.3296 5.93473 14.3197 5.86377C14.3098 5.79282 14.2818 5.72575 14.2387 5.66969C14.195 5.61135 14.1361 5.56751 14.0693 5.54355C14.0026 5.5196 13.9309 5.51659 13.863 5.53489L11.9607 6.0585L11.7109 4.33921Z" fill="white"/>
<path d="M17.8347 10.9968C16.8563 8.72083 14.6131 7.1325 12 7.1325C9.38693 7.1325 7.14375 8.72083 6.16534 10.9968C5.51307 11.0531 5 11.604 5 12.2795V14.853C5 15.5285 5.51307 16.0794 6.16534 16.1357C7.14375 18.4117 9.38693 20 12 20C14.6131 20 16.8563 18.4117 17.8347 16.1357C18.4869 16.0794 19 15.5285 19 14.853V12.2795C19 11.604 18.4869 11.0531 17.8347 10.9968ZM16.4545 12.9229V13.5663C16.4545 15.6974 14.7443 17.4265 12.6364 17.4265H11.3636C9.25568 17.4265 7.54545 15.6974 7.54545 13.5663V12.9229C7.54545 11.8573 8.40057 10.9928 9.45455 10.9928H14.5455C15.5994 10.9928 16.4545 11.8573 16.4545 12.9229Z" fill="white"/>
<path d="M12.3415 12.2891C12.3494 12.235 12.3379 12.1801 12.3087 12.1323C12.2795 12.0845 12.234 12.0463 12.179 12.0232C12.1223 11.9994 12.0583 11.9937 11.9975 12.0071C11.9368 12.0206 11.883 12.0523 11.8453 12.0971L10.0615 14.151C10.0291 14.1884 10.0086 14.233 10.0022 14.28C9.99575 14.327 10.0036 14.3747 10.0249 14.418C10.0642 14.4987 10.1552 14.57 10.28 14.57H11.8073L11.6587 15.7109C11.6508 15.765 11.6623 15.8199 11.6915 15.8677C11.7207 15.9155 11.7662 15.9537 11.8213 15.9768C11.8779 16.0006 11.9419 16.0063 12.0027 15.9929C12.0634 15.9794 12.1172 15.9477 12.155 15.9029L13.9385 13.849C13.9709 13.8116 13.9914 13.767 13.9978 13.72C14.0043 13.673 13.9964 13.6253 13.9751 13.582C13.9537 13.5371 13.9182 13.4987 13.8729 13.4717C13.8275 13.4447 13.7744 13.4302 13.72 13.43H12.1927L12.3415 12.2891Z" fill="white"/>
</svg>
