<svg width="32" height="32" viewBox="0 0 32 32" fill="none" xmlns="http://www.w3.org/2000/svg">
<path d="M9.04235 19.1661C9.04235 20.5537 7.9088 21.6873 6.52117 21.6873C5.13355 21.6873 4 20.5537 4 19.1661C4 17.7785 5.13355 16.645 6.52117 16.645H9.04235V19.1661Z" fill="#E01E5A"/>
<path d="M10.3127 19.1661C10.3127 17.7785 11.4463 16.645 12.8339 16.645C14.2215 16.645 15.355 17.7785 15.355 19.1661V25.4788C15.355 26.8664 14.2215 28 12.8339 28C11.4463 28 10.3127 26.8664 10.3127 25.4788V19.1661Z" fill="#E01E5A"/>
<path d="M12.8339 9.04235C11.4463 9.04235 10.3127 7.9088 10.3127 6.52117C10.3127 5.13355 11.4463 4 12.8339 4C14.2215 4 15.355 5.13355 15.355 6.52117V9.04235H12.8339Z" fill="#36C5F0"/>
<path d="M12.8339 10.3127C14.2215 10.3127 15.355 11.4463 15.355 12.8339C15.355 14.2215 14.2215 15.355 12.8339 15.355H6.52117C5.13355 15.355 4 14.2215 4 12.8339C4 11.4463 5.13355 10.3127 6.52117 10.3127H12.8339Z" fill="#36C5F0"/>
<path d="M22.9577 12.8339C22.9577 11.4463 24.0912 10.3127 25.4788 10.3127C26.8664 10.3127 28 11.4463 28 12.8339C28 14.2215 26.8664 15.355 25.4788 15.355H22.9577V12.8339Z" fill="#2EB67D"/>
<path d="M21.6873 12.8339C21.6873 14.2215 20.5537 15.355 19.1661 15.355C17.7785 15.355 16.645 14.2215 16.645 12.8339V6.52117C16.645 5.13355 17.7785 4 19.1661 4C20.5537 4 21.6873 5.13355 21.6873 6.52117V12.8339Z" fill="#2EB67D"/>
<path d="M19.1661 22.9577C20.5537 22.9577 21.6873 24.0912 21.6873 25.4788C21.6873 26.8664 20.5537 28 19.1661 28C17.7785 28 16.645 26.8664 16.645 25.4788V22.9577H19.1661Z" fill="#ECB22E"/>
<path d="M19.1661 21.6873C17.7785 21.6873 16.645 20.5537 16.645 19.1661C16.645 17.7785 17.7785 16.645 19.1661 16.645H25.4788C26.8664 16.645 28 17.7785 28 19.1661C28 20.5537 26.8664 21.6873 25.4788 21.6873H19.1661Z" fill="#ECB22E"/>
</svg>
