<svg xmlns="http://www.w3.org/2000/svg" viewBox="0 0 780 1060" width="780" height="1060"
  font-family="Inter, -apple-system, BlinkMacSystemFont, system-ui, sans-serif">

  <defs>
    <marker id="arr" markerWidth="7" markerHeight="7" refX="6" refY="3.5" orient="auto">
      <path d="M0,1 L0,6 L7,3.5 z" fill="#c2410c"/>
    </marker>
    <marker id="arr-gray" markerWidth="7" markerHeight="7" refX="6" refY="3.5" orient="auto">
      <path d="M0,1 L0,6 L7,3.5 z" fill="#6b7280"/>
    </marker>
    <marker id="arr-gray-left" markerWidth="7" markerHeight="7" refX="1" refY="3.5" orient="auto">
      <path d="M7,1 L7,6 L0,3.5 z" fill="#6b7280"/>
    </marker>
  </defs>

  <!-- Page background -->
  <rect width="780" height="1060" fill="#f8fafc"/>

  <!-- ─────────────────────────────────────────
       HEADER
  ───────────────────────────────────────── -->
  <circle cx="36" cy="30" r="18" fill="#e95420"/>
  <g transform="translate(25.3, 19.5) scale(1.54)">
    <path d="M6.711 0.339C6.7 0.257 6.665 0.181 6.61 0.121C6.556 0.061 6.484 0.021 6.407 0.006C6.327-0.009 6.246 0.004 6.175 0.045C6.104 0.085 6.05 0.15 6.02 0.229L4.581 3.843C4.555 3.909 4.547 3.981 4.557 4.052C4.566 4.123 4.594 4.19 4.638 4.246C4.717 4.351 4.858 4.424 5.013 4.381L6.916 3.858L7.166 5.577C7.176 5.659 7.212 5.735 7.266 5.795C7.321 5.855 7.392 5.895 7.47 5.91C7.549 5.925 7.631 5.912 7.702 5.871C7.772 5.831 7.827 5.766 7.857 5.688L9.295 2.073C9.321 2.007 9.33 1.935 9.32 1.864C9.31 1.793 9.282 1.726 9.239 1.67C9.195 1.611 9.136 1.568 9.069 1.544C9.003 1.52 8.931 1.517 8.863 1.535L6.961 2.059L6.711 0.339Z" fill="white"/>
    <path d="M12.835 6.997C11.856 4.721 9.613 3.132 7 3.132C4.387 3.132 2.144 4.721 1.165 6.997C0.513 7.053 0 7.604 0 8.279V10.853C0 11.528 0.513 12.079 1.165 12.136C2.144 14.412 4.387 16 7 16C9.613 16 11.856 14.412 12.835 12.136C13.487 12.079 14 11.528 14 10.853V8.279C14 7.604 13.487 7.053 12.835 6.997ZM11.455 8.923V9.566C11.455 11.697 9.744 13.426 7.636 13.426H6.364C4.256 13.426 2.545 11.697 2.545 9.566V8.923C2.545 7.857 3.401 6.993 4.455 6.993H9.545C10.599 6.993 11.455 7.857 11.455 8.923Z" fill="white"/>
    <path d="M7.342 8.289C7.349 8.235 7.338 8.18 7.309 8.132C7.279 8.084 7.234 8.046 7.179 8.023C7.122 7.999 7.058 7.994 6.997 8.007C6.937 8.021 6.883 8.052 6.845 8.097L5.061 10.151C5.029 10.188 5.009 10.233 5.002 10.28C4.996 10.327 5.004 10.375 5.025 10.418C5.064 10.499 5.155 10.57 5.28 10.57H6.807L6.659 11.711C6.651 11.765 6.662 11.82 6.691 11.868C6.721 11.916 6.766 11.954 6.821 11.977C6.878 12.001 6.942 12.006 7.003 11.993C7.063 11.979 7.117 11.948 7.155 11.903L8.938 9.849C8.971 9.812 8.991 9.767 8.998 9.72C9.004 9.673 8.996 9.625 8.975 9.582C8.954 9.537 8.918 9.499 8.873 9.472C8.827 9.445 8.774 9.43 8.72 9.43H7.193L7.342 8.289Z" fill="white"/>
  </g>
  <text x="63" y="25" font-size="16" font-weight="700" fill="#111827" letter-spacing="-0.2">Crewmate</text>
  <text x="63" y="41" font-size="10" fill="#6b7280" letter-spacing="0.2">System Architecture</text>
  <text x="748" y="30" text-anchor="end" font-size="9" font-weight="600" fill="#6b7280" letter-spacing="1.2">GEMINI LIVE AGENT CHALLENGE</text>
  <text x="748" y="44" text-anchor="end" font-size="9" fill="#9ca3af">Node.js · React 19 · Google Cloud</text>

  <line x1="0" y1="56" x2="780" y2="56" stroke="#e2e8f0" stroke-width="1"/>
  <rect x="0" y="56" width="200" height="2" fill="#e95420" opacity="0.6"/>


  <!-- ─────────────────────────────────────────
       USER
  ───────────────────────────────────────── -->
  <rect x="260" y="72" width="260" height="52" rx="8"
    fill="#ffffff" stroke="#d1d5db" stroke-width="1.5"/>
  <text x="390" y="94" text-anchor="middle" font-size="11" font-weight="700" fill="#111827" letter-spacing="0.5">USER</text>
  <text x="390" y="112" text-anchor="middle" font-size="10" fill="#6b7280">Voice  ·  Screen share  ·  Text</text>

  <!-- arrow USER → FRONTEND -->
  <line x1="390" y1="124" x2="390" y2="144" stroke="#c2410c" stroke-width="2" marker-end="url(#arr)"/>


  <!-- ─────────────────────────────────────────
       FRONTEND
  ───────────────────────────────────────── -->
  <rect x="40" y="148" width="700" height="86" rx="8"
    fill="#ffffff" stroke="#d1d5db" stroke-width="1.5"/>
  <rect x="40" y="148" width="4" height="86" rx="2" fill="#e95420"/>
  <rect x="40" y="148" width="700" height="30" rx="8" fill="#f9fafb"/>
  <rect x="40" y="165" width="700" height="13" fill="#f9fafb"/>
  <text x="56" y="168" font-size="10" font-weight="700" fill="#111827" letter-spacing="1.5">FRONTEND</text>
  <text x="728" y="168" text-anchor="end" font-size="9" fill="#6b7280">Firebase Hosting  ·  React 19  ·  Vite  ·  TypeScript  ·  Tailwind CSS</text>
  <text x="56" y="194" font-size="10" fill="#374151">Dashboard  ·  Live Session  ·  Tasks (SSE stream)  ·  Memory  ·  Integrations  ·  Sessions</text>
  <text x="56" y="212" font-size="10" fill="#6b7280">Zustand state  ·  WebSocket  ·  AuthContext  ·  LiveSessionContext</text>

  <!-- arrow FRONTEND → BACKEND -->
  <line x1="390" y1="234" x2="390" y2="260" stroke="#c2410c" stroke-width="2" marker-end="url(#arr)"/>
  <text x="400" y="250" font-size="9" fill="#6b7280">WebSocket  ·  REST  ·  SSE</text>


  <!-- ─────────────────────────────────────────
       BACKEND WRAPPER
  ───────────────────────────────────────── -->
  <rect x="20" y="264" width="740" height="740" rx="10"
    fill="#f1f5f9" stroke="#cbd5e1" stroke-width="1.5"/>
  <text x="390" y="282" text-anchor="middle" font-size="9" font-weight="600" fill="#64748b" letter-spacing="1.2">BACKEND  —  Node.js · Express · TypeScript · Google Cloud Run</text>


  <!-- ─────────────────────────────────────────
       LIVE LAYER
  ───────────────────────────────────────── -->
  <rect x="40" y="290" width="700" height="200" rx="8"
    fill="#eff6ff" stroke="#bfdbfe" stroke-width="1.5"/>
  <text x="56" y="310" font-size="9" font-weight="700" fill="#1d4ed8" letter-spacing="1.5">LIVE LAYER</text>

  <!-- liveGateway box -->
  <rect x="56" y="318" width="196" height="60" rx="6"
    fill="#ffffff" stroke="#93c5fd" stroke-width="1.5"/>
  <text x="154" y="342" text-anchor="middle" font-size="10" font-weight="600" fill="#1e3a8a">liveGateway</text>
  <text x="154" y="358" text-anchor="middle" font-size="9" fill="#3b82f6">promptBuilder</text>
  <text x="154" y="371" text-anchor="middle" font-size="8.5" fill="#6b7280">Memory · Integrations · User</text>

  <!-- WebSocket arrows (bidirectional) -->
  <line x1="252" y1="345" x2="298" y2="345" stroke="#c2410c" stroke-width="2" marker-end="url(#arr)"/>
  <line x1="298" y1="357" x2="252" y2="357" stroke="#6b7280" stroke-width="1" stroke-dasharray="3,2" marker-end="url(#arr-gray-left)"/>
  <text x="275" y="338" text-anchor="middle" font-size="8" font-weight="600" fill="#c2410c">WebSocket</text>

  <!-- Gemini Live API box -->
  <rect x="300" y="318" width="228" height="60" rx="6"
    fill="#dbeafe" stroke="#93c5fd" stroke-width="1.5"/>
  <text x="414" y="342" text-anchor="middle" font-size="10" font-weight="600" fill="#1d4ed8">Gemini Live API</text>
  <text x="414" y="358" text-anchor="middle" font-size="9" fill="#2563eb">gemini-2.5-flash-native-audio</text>
  <text x="414" y="371" text-anchor="middle" font-size="8.5" fill="#3b82f6">Real-time audio + vision</text>

  <!-- messageProcessor box -->
  <rect x="56" y="396" width="162" height="46" rx="6"
    fill="#ffffff" stroke="#bfdbfe" stroke-width="1"/>
  <text x="137" y="418" text-anchor="middle" font-size="9.5" font-weight="600" fill="#1e3a8a">messageProcessor</text>
  <text x="137" y="434" text-anchor="middle" font-size="8.5" fill="#6b7280">Tool call routing</text>

  <!-- arrow → toolRunner -->
  <line x1="218" y1="419" x2="244" y2="419" stroke="#6b7280" stroke-width="1.5" marker-end="url(#arr-gray)"/>

  <!-- toolRunner box -->
  <rect x="246" y="396" width="148" height="46" rx="6"
    fill="#ffffff" stroke="#bfdbfe" stroke-width="1"/>
  <text x="320" y="418" text-anchor="middle" font-size="9.5" font-weight="600" fill="#1e3a8a">toolRunner</text>
  <text x="320" y="434" text-anchor="middle" font-size="8.5" fill="#6b7280">handleToolCall()</text>

  <!-- arrow → executionPolicy -->
  <line x1="394" y1="419" x2="422" y2="419" stroke="#c2410c" stroke-width="2" marker-end="url(#arr)"/>

  <!-- executionPolicy box — key decision node -->
  <rect x="424" y="388" width="200" height="64" rx="6"
    fill="#fff7ed" stroke="#fb923c" stroke-width="2"/>
  <text x="524" y="410" text-anchor="middle" font-size="9.5" font-weight="700" fill="#9a3412">executionPolicy</text>
  <text x="524" y="427" text-anchor="middle" font-size="8.5" fill="#c2410c">inline  ·  delegated</text>
  <text x="524" y="442" text-anchor="middle" font-size="8.5" fill="#c2410c">delegate-to-agent  ·  run-pipeline</text>


  <!-- ─────────────────────────────────────────
       THREE BRANCHES
  ───────────────────────────────────────── -->
  <line x1="524" y1="452" x2="524" y2="466" stroke="#c2410c" stroke-width="2"/>
  <line x1="148" y1="466" x2="660" y2="466" stroke="#c2410c" stroke-width="2"/>
  <line x1="148" y1="466" x2="148" y2="490" stroke="#c2410c" stroke-width="2" marker-end="url(#arr)"/>
  <line x1="390" y1="466" x2="390" y2="490" stroke="#c2410c" stroke-width="2" marker-end="url(#arr)"/>
  <line x1="628" y1="466" x2="628" y2="490" stroke="#c2410c" stroke-width="2" marker-end="url(#arr)"/>

  <!-- INLINE SKILLS -->
  <rect x="56" y="492" width="184" height="76" rx="7"
    fill="#ffffff" stroke="#d1d5db" stroke-width="1.5"/>
  <rect x="56" y="492" width="184" height="4" rx="2" fill="#9ca3af"/>
  <text x="148" y="516" text-anchor="middle" font-size="10" font-weight="600" fill="#374151">Inline Skills</text>
  <text x="148" y="534" text-anchor="middle" font-size="9" fill="#6b7280">Fast, side-effect-free</text>
  <text x="148" y="550" text-anchor="middle" font-size="9" fill="#6b7280">Runs during live turn</text>
  <text x="148" y="562" text-anchor="middle" font-size="8.5" fill="#9ca3af">latencyClass: quick</text>

  <!-- ORCHESTRATOR -->
  <rect x="296" y="492" width="188" height="76" rx="7"
    fill="#ffffff" stroke="#e95420" stroke-width="2"/>
  <rect x="296" y="492" width="188" height="4" rx="2" fill="#e95420"/>
  <text x="390" y="516" text-anchor="middle" font-size="10" font-weight="700" fill="#111827">Orchestrator</text>
  <text x="390" y="534" text-anchor="middle" font-size="9" fill="#374151">Intent router</text>
  <text x="390" y="550" text-anchor="middle" font-size="9" fill="#6b7280">gemini-3.1-pro-preview</text>
  <text x="390" y="562" text-anchor="middle" font-size="8.5" fill="#9ca3af">Memory injected before each run</text>

  <!-- PIPELINE ORCHESTRATOR -->
  <rect x="536" y="492" width="184" height="76" rx="7"
    fill="#ffffff" stroke="#d1d5db" stroke-width="1.5"/>
  <rect x="536" y="492" width="184" height="4" rx="2" fill="#9ca3af"/>
  <text x="628" y="516" text-anchor="middle" font-size="10" font-weight="600" fill="#374151">Pipeline Orchestrator</text>
  <text x="628" y="534" text-anchor="middle" font-size="9" fill="#6b7280">Sequential agent chaining</text>
  <text x="628" y="550" text-anchor="middle" font-size="9" fill="#6b7280">Output → next step input</text>
  <text x="628" y="562" text-anchor="middle" font-size="8.5" fill="#9ca3af">live.run-pipeline</text>

  <!-- Orchestrator + Pipeline converge -->
  <line x1="390" y1="568" x2="390" y2="582" stroke="#c2410c" stroke-width="2"/>
  <line x1="628" y1="568" x2="628" y2="582" stroke="#c2410c" stroke-width="2"/>
  <line x1="390" y1="582" x2="628" y2="582" stroke="#c2410c" stroke-width="2"/>
  <line x1="510" y1="582" x2="510" y2="600" stroke="#c2410c" stroke-width="2" marker-end="url(#arr)"/>


  <!-- ─────────────────────────────────────────
       14 SPECIALIST AGENTS
  ───────────────────────────────────────── -->
  <rect x="40" y="604" width="700" height="88" rx="8"
    fill="#ffffff" stroke="#d1d5db" stroke-width="1.5"/>
  <rect x="40" y="604" width="4" height="88" rx="2" fill="#e95420"/>
  <rect x="40" y="604" width="700" height="30" rx="8" fill="#f9fafb"/>
  <rect x="40" y="621" width="700" height="13" fill="#f9fafb"/>
  <text x="56" y="623" font-size="9" font-weight="700" fill="#111827" letter-spacing="1.5">14 SPECIALIST AGENTS</text>
  <text x="728" y="623" text-anchor="end" font-size="8.5" fill="#9ca3af">Self-critique on every output  ·  Memory injected before each run</text>
  <text x="56" y="651" font-size="9.5" fill="#374151">Research  ·  Content  ·  Marketing  ·  Social  ·  HR  ·  Product  ·  Support  ·  Sales</text>
  <text x="56" y="668" font-size="9.5" fill="#4b5563">Finance  ·  Legal  ·  Communications  ·  DevOps  ·  Data  ·  UI Navigator (browser)</text>
  <text x="56" y="683" font-size="8.5" fill="#9ca3af">Each agent: Research → Strategy → Generate → Self-Critique → Save</text>

  <!-- arrow agents → skills -->
  <line x1="390" y1="692" x2="390" y2="712" stroke="#c2410c" stroke-width="2" marker-end="url(#arr)"/>


  <!-- ─────────────────────────────────────────
       60 SKILLS REGISTRY
  ───────────────────────────────────────── -->
  <rect x="40" y="714" width="700" height="72" rx="8"
    fill="#ffffff" stroke="#d1d5db" stroke-width="1.5"/>
  <rect x="40" y="714" width="4" height="72" rx="2" fill="#e95420"/>
  <rect x="40" y="714" width="700" height="30" rx="8" fill="#f9fafb"/>
  <rect x="40" y="731" width="700" height="13" fill="#f9fafb"/>
  <text x="56" y="733" font-size="9" font-weight="700" fill="#111827" letter-spacing="1.5">60 SKILLS REGISTRY</text>
  <text x="728" y="733" text-anchor="end" font-size="8.5" fill="#9ca3af">inline · delegated · either  ·  latencyClass  ·  sideEffectLevel</text>
  <text x="56" y="759" font-size="9.5" fill="#374151">Notion  ·  Slack  ·  ClickUp  ·  Gmail  ·  Google Docs · Sheets · Slides · Drive · Calendar</text>
  <text x="56" y="775" font-size="9.5" fill="#4b5563">Browser (Stagehand + Playwright)  ·  Web search  ·  Terminal  ·  Memory  ·  GitHub</text>

  <!-- arrow skills → external -->
  <line x1="390" y1="786" x2="390" y2="806" stroke="#c2410c" stroke-width="2" marker-end="url(#arr)"/>


  <!-- ─────────────────────────────────────────
       EXTERNAL SERVICES
  ───────────────────────────────────────── -->
  <rect x="40" y="808" width="700" height="52" rx="8"
    fill="#f8fafc" stroke="#cbd5e1" stroke-width="1.5"/>
  <text x="56" y="829" font-size="9" font-weight="700" fill="#475569" letter-spacing="1.5">EXTERNAL SERVICES</text>
  <text x="56" y="847" font-size="9.5" fill="#475569">Google Workspace  ·  Notion  ·  Slack  ·  ClickUp  ·  GitHub  ·  Stagehand browser  ·  Terminal</text>
  <text x="56" y="858" font-size="8.5" fill="#94a3b8">All credentials AES-encrypted at rest  ·  OAuth 2.0 per integration</text>


  <!-- ─────────────────────────────────────────
       BOTTOM ROW: MEMORY + EVENT SERVICE
  ───────────────────────────────────────── -->
  <!-- MEMORY LAYER -->
  <rect x="40" y="882" width="330" height="108" rx="8"
    fill="#ffffff" stroke="#d1d5db" stroke-width="1.5"/>
  <rect x="40" y="882" width="4" height="108" rx="2" fill="#e95420"/>
  <rect x="40" y="882" width="330" height="30" rx="8" fill="#f9fafb"/>
  <rect x="40" y="899" width="330" height="13" fill="#f9fafb"/>
  <text x="56" y="901" font-size="9" font-weight="700" fill="#111827" letter-spacing="1.5">MEMORY LAYER</text>
  <text x="56" y="929" font-size="9.5" fill="#374151">Gemini Embedding 2  ·  SQLite vector store</text>
  <text x="56" y="945" font-size="9.5" fill="#4b5563">Cosine similarity search  ·  lexical fallback</text>
  <text x="56" y="961" font-size="9.5" fill="#4b5563">Write: live turns, agent results, skill outputs</text>
  <text x="56" y="976" font-size="8.5" fill="#9ca3af">Injected into system prompt at session start and before every agent run</text>

  <!-- EVENT SERVICE -->
  <rect x="410" y="882" width="330" height="108" rx="8"
    fill="#ffffff" stroke="#d1d5db" stroke-width="1.5"/>
  <rect x="410" y="882" width="4" height="108" rx="2" fill="#475569"/>
  <rect x="410" y="882" width="330" height="30" rx="8" fill="#f9fafb"/>
  <rect x="410" y="899" width="330" height="13" fill="#f9fafb"/>
  <text x="426" y="901" font-size="9" font-weight="700" fill="#111827" letter-spacing="1.5">EVENT SERVICE (SSE)</text>
  <text x="426" y="929" font-size="9.5" fill="#374151">Broadcasts to connected frontend clients</text>
  <text x="426" y="945" font-size="9.5" fill="#4b5563">live_task_update  ·  step  ·  completed  ·  failed</text>
  <text x="426" y="961" font-size="9.5" fill="#4b5563">Task cue badge  ·  Streaming trace in Tasks UI</text>
  <text x="426" y="976" font-size="8.5" fill="#9ca3af">Auto-clears on terminal event or 45s safety cap</text>


  <!-- ─────────────────────────────────────────
       SIDE ANNOTATIONS
       Memory write (right) + SSE back to frontend (left)
  ───────────────────────────────────────── -->
  <!-- Memory write: agents → memory (right dashed line) -->
  <line x1="748" y1="648" x2="748" y2="898" stroke="#cbd5e1" stroke-width="1" stroke-dasharray="4,3"/>
  <line x1="740" y1="648" x2="748" y2="648" stroke="#cbd5e1" stroke-width="1" stroke-dasharray="4,3"/>
  <line x1="748" y1="898" x2="740" y2="898" stroke="#6b7280" stroke-width="1" stroke-dasharray="4,3" marker-end="url(#arr-gray)"/>
  <text x="762" y="775" text-anchor="middle" font-size="8" fill="#94a3b8" transform="rotate(90, 762, 775)">memory write / read</text>

  <!-- SSE back to frontend (left dashed line) -->
  <line x1="28" y1="882" x2="28" y2="214" stroke="#cbd5e1" stroke-width="1" stroke-dasharray="4,3"/>
  <line x1="28" y1="214" x2="40" y2="214" stroke="#6b7280" stroke-width="1" stroke-dasharray="4,3" marker-end="url(#arr-gray)"/>
  <text x="14" y="580" text-anchor="middle" font-size="8" fill="#94a3b8" transform="rotate(-90, 14, 580)">SSE  →  Frontend</text>
  <!-- connect event service left edge to the left dashed line -->
  <line x1="40" y1="936" x2="28" y2="936" stroke="#cbd5e1" stroke-width="1" stroke-dasharray="4,3"/>


  <!-- ─────────────────────────────────────────
       FOOTER
  ───────────────────────────────────────── -->
  <line x1="0" y1="1006" x2="780" y2="1006" stroke="#e2e8f0" stroke-width="1"/>
  <rect x="580" y="1006" width="200" height="2" fill="#e95420" opacity="0.4"/>
  <text x="32" y="1028" font-size="8.5" fill="#94a3b8">Google Cloud Run  ·  Firebase Auth + Hosting  ·  Gemini Live API  ·  Gemini Embedding 2  ·  @google/genai SDK  ·  A2A discoverable</text>
  <text x="748" y="1028" text-anchor="end" font-size="8.5" fill="#cbd5e1">Gemini Live Agent Challenge 2025</text>

</svg>
